<?xml version="1.0" encoding="utf-8"?>
<!-- Generator: Adobe Illustrator 26.1.0, SVG Export Plug-In . SVG Version: 6.00 Build 0)  -->
<svg version="1.1" id="Layer_1" xmlns="http://www.w3.org/2000/svg" xmlns:xlink="http://www.w3.org/1999/xlink" x="0px" y="0px"
	 viewBox="0 0 818.9 818.9" style="enable-background:new 0 0 818.9 818.9;" xml:space="preserve">
<style type="text/css">
	.st0{fill-rule:evenodd;clip-rule:evenodd;fill:#FFFFFF;}
	.st1{fill-rule:evenodd;clip-rule:evenodd;fill:#061A34;}
	.st2{fill:#3575B3;}
	.st3{fill:#F5A553;}
	.st4{fill:#52BCBA;}
	.st5{fill:#061A34;}
</style>
<g>
	<circle class="st0" cx="409.4" cy="409.4" r="299"/>
	<g>
		<path class="st1" d="M197.5,370.5c-29.2,0-42.3,19.1-42.3,40.6c0,21.5,13.1,40.8,42.3,40.8c29.1,0,42.2-19.3,42.2-40.8
			C239.7,389.6,226.5,370.5,197.5,370.5 M197.5,430.3c-11.2,0-12.7-11-12.7-19.3s1.5-19.1,12.7-19.1c11.2,0,12.7,10.9,12.7,19.1
			S208.6,430.3,197.5,430.3"/>
		<path class="st1" d="M250.7,449.9h29.5v-41.9c0-8.1,2.6-13.9,10-13.9c8.9,0,9.7,6.6,9.7,13.9v41.9h29.6v-41.9
			c0-8.1,2.5-13.9,10-13.9c9,0,9.7,6.6,9.7,13.9v41.9h29.5v-53.2c0-12.5-6.7-26.2-26.6-26.2c-19.2,0-25.1,11.2-26.4,12.1
			c-3.5-7.8-12.5-12.1-20.9-12.1c-10.7,0-19.4,3.2-25.4,12.2h-0.2v-10.3h-28.5V449.9z"/>
		<path class="st1" d="M432.9,432.9c-0.3,0-0.5,0-0.8-0.1c-8.8-0.3-13.5-6.5-14.3-15H432h42.4c0-29.6-12.8-46.7-42.4-47.3h-1.6
			c-24.5,0-40.9,18.4-40.9,40.9c0,25.5,18.1,40.1,42.4,40.5h1c17.6,0,33.9-7.8,39.9-24.5h-27.6C442.8,431,437.6,432.9,432.9,432.9
			 M432,389.4h1.1c7.6,0,13,5.8,13,12.9H432h-14.1C419.2,394.4,423.9,389.8,432,389.4"/>
		<path class="st1" d="M539.1,372.4v9.4h-0.3c-2.3-5.2-6.6-8.5-11.6-10c-2.7-0.9-5.7-1.3-8.7-1.3c-22.1,0-33.6,16.8-33.6,37
			c0,20.7,10.3,37.8,33.2,37.8c3.2,0,6.3-0.5,9.1-1.6c4.7-1.7,8.6-4.8,11.6-9.2h0.3v11.2c0,6.4-2.1,17.7-11.6,17.7h-0.3
			c-3.6-0.2-6.6-3-8.4-5.7c-0.4-0.6-0.9-1.2-1.2-1.9H488c3,19.8,21.3,24.8,39.1,25h1.1c36.3,0,40.3-21.7,40.3-37v-71.6H539.1z
			 M527.8,426.3h-0.6c-10.1-0.4-12.7-10.3-12.7-19c0-8.2,4.2-15.4,12.5-15.4h0.2c8.5,0.1,12.7,6.8,12.7,15.3
			C539.9,415.8,538.6,426.3,527.8,426.3z"/>
		<path class="st1" d="M660.1,432.6v-31.8c0-15,0.3-30.3-36.7-30.3h-2.5c-17.7,0.3-36.6,4.5-37.4,25.4H611c0.2-3.2,1.8-7.6,10-7.9
			h1.1c4.8,0,9.7,1.9,9.7,7.2c0,4.9-4,6.1-8,6.9c-0.9,0.1-1.8,0.3-2.8,0.5c-15.6,2.3-41,2.9-41,25.9c0,16.3,12.4,23.5,27.3,23.5
			c4.8,0,9.4-0.5,13.7-2c4.2-1.4,8.2-3.7,11.3-7.3h0.3c-0.2,2.1,0.3,5.2,1.1,7.3h30.1C660.4,444.9,660.1,438.4,660.1,432.6
			 M631.7,422.2c-0.4,7.5-4.8,11.5-10.8,12.1c-0.5,0-1.1,0.1-1.6,0.1c-5.4,0-9.2-3.6-9.2-7.2c0-5.3,3.4-6.9,10-8.4
			c0.3-0.1,0.5-0.2,0.8-0.2c3.8-0.9,7.5-1.9,10.8-3.5V422.2z"/>
	</g>
	<path class="st2" d="M523.9,225C523.9,225,524,225,523.9,225l-25.3,96.6h-56.2l13.6-52.2l11.8-45.6h-28.2l6.1-21.8h84.2L523.9,225z
		"/>
	<polygon class="st3" points="370.5,234.3 364.3,256.1 392.5,256.1 381.1,297.9 374.5,321.7 430.7,321.7 443.5,274.5 454.5,234.3 	
		"/>
	<polygon class="st4" points="305,266.4 292.3,312.3 289.5,321.7 361.4,321.7 367.3,300.5 376.9,266.4 	"/>
	<g>
		<path class="st5" d="M322.5,565c0.9,2.7,2.3,5.1,4.1,7c1.8,1.9,4.1,3.4,6.7,4.5c2.7,1.1,5.7,1.6,9.1,1.6c2.8,0,5.5-0.4,8.1-1.2
			c2.6-0.8,4.9-2,6.9-3.6c2-1.6,3.6-3.6,4.8-5.9c1.2-2.3,1.8-5,1.8-8c0-3.1-0.5-5.7-1.6-7.9c-1-2.2-2.5-4.1-4.3-5.5
			c-1.8-1.5-4-2.6-6.4-3.3c-2.5-0.7-5.1-1.1-7.9-1.1h-6.4v-6.4h6.4c1.9,0,3.9-0.3,6-0.9c2.1-0.6,3.9-1.5,5.5-2.8
			c1.6-1.2,3-2.8,4-4.8c1-1.9,1.6-4.2,1.6-6.9c0-2.8-0.5-5.2-1.4-7.2c-1-2-2.3-3.6-4-4.9c-1.7-1.3-3.6-2.3-5.8-2.9
			c-2.2-0.6-4.6-0.9-7.2-0.9c-3.1,0-5.9,0.5-8.3,1.6c-2.4,1-4.4,2.5-6.1,4.4c-1.6,1.9-2.9,4.1-3.7,6.7c-0.8,2.6-1.2,5.5-1.1,8.6
			h-7.6c0-4,0.6-7.7,1.9-11.1c1.2-3.4,3-6.3,5.3-8.7c2.3-2.5,5.1-4.4,8.4-5.8c3.3-1.4,7-2.1,11.1-2.1c3.3,0,6.5,0.4,9.6,1.3
			c3.1,0.8,5.9,2.1,8.4,3.9c2.5,1.7,4.4,3.9,5.9,6.6c1.5,2.7,2.2,5.9,2.2,9.7c0,4.6-1.2,8.6-3.7,11.9c-2.5,3.4-6,5.6-10.5,6.7v0.2
			c5.5,0.9,9.8,3.2,12.8,6.9c3,3.7,4.5,8.4,4.5,13.9c0,4.2-0.8,7.9-2.3,11c-1.6,3.2-3.7,5.8-6.3,8c-2.7,2.2-5.7,3.8-9.3,4.9
			c-3.5,1.1-7.2,1.6-11.1,1.6c-4.3,0-8.3-0.6-12-1.9c-3.7-1.3-6.8-3.1-9.4-5.5c-2.6-2.4-4.6-5.4-5.9-8.9c-1.3-3.5-1.8-7.6-1.5-12.2
			h7.6C321.2,559.2,321.6,562.2,322.5,565z"/>
		<path class="st5" d="M424.5,508.3c-3.1-2.9-7.1-4.3-12-4.3c-4.9,0-8.9,1.2-11.9,3.7c-3.1,2.5-5.4,5.6-7.1,9.4
			c-1.7,3.8-2.8,7.9-3.4,12.2c-0.6,4.4-0.8,8.5-0.8,12.3h0.2c2-4.2,5-7.5,9.1-10.1c4.1-2.6,8.5-3.9,13.3-3.9c4.3,0,8.1,0.7,11.5,2.1
			c3.4,1.4,6.3,3.4,8.7,5.8c2.4,2.5,4.3,5.5,5.6,8.9c1.3,3.5,2,7.2,2,11.3c0,4.1-0.7,7.9-2.1,11.4c-1.4,3.5-3.4,6.5-5.9,9
			c-2.5,2.5-5.5,4.5-9,5.9c-3.5,1.4-7.3,2.1-11.5,2.1c-5.1,0-9.6-0.8-13.3-2.4c-3.7-1.6-6.7-4.1-9.2-7.7c-2.4-3.5-4.2-8.1-5.4-13.8
			c-1.2-5.7-1.7-12.6-1.7-20.9c0-1.7,0.1-3.9,0.3-6.6c0.2-2.7,0.7-5.6,1.4-8.7c0.7-3.1,1.7-6.2,3.1-9.4c1.3-3.2,3.1-6,5.3-8.6
			c2.2-2.6,5-4.7,8.3-6.3c3.3-1.6,7.2-2.4,11.8-2.4c7.5,0,13.5,1.8,18,5.4c4.4,3.6,7.1,9.2,8,16.6h-7.6
			C429.4,515,427.6,511.2,424.5,508.3z M402.9,535.9c-2.6,1.2-4.8,2.8-6.6,4.8c-1.8,2-3.2,4.4-4.1,7c-0.9,2.7-1.4,5.6-1.4,8.7
			c0,3,0.4,5.8,1.2,8.4c0.8,2.7,2.1,5,3.8,6.9c1.7,2,3.9,3.5,6.6,4.6c2.7,1.1,5.8,1.7,9.5,1.7c3.1,0,5.8-0.6,8.3-1.7
			c2.5-1.2,4.6-2.7,6.4-4.7c1.8-2,3.2-4.3,4.2-6.9c1-2.7,1.4-5.4,1.4-8.3c0-3.1-0.5-5.9-1.4-8.7c-0.9-2.7-2.2-5.1-4-7.1
			c-1.7-2-3.9-3.6-6.4-4.8c-2.5-1.2-5.4-1.7-8.6-1.7C408.5,534.1,405.5,534.7,402.9,535.9z"/>
		<path class="st5" d="M457.5,566.5c1.1,2.4,2.5,4.5,4.4,6.2c1.8,1.7,4,3.1,6.5,4c2.5,0.9,5.2,1.4,8.1,1.4c3.3,0,6.2-0.6,8.8-1.9
			c2.6-1.2,4.8-2.9,6.6-5.1c1.8-2.1,3.3-4.6,4.2-7.4s1.4-5.7,1.4-8.7c0-3.1-0.5-6-1.6-8.7c-1.1-2.7-2.6-5-4.5-6.9
			c-1.9-2-4.2-3.5-6.8-4.6c-2.7-1.1-5.5-1.7-8.7-1.7c-3.9,0-7.4,0.9-10.7,2.6c-3.3,1.7-6,4.2-8.1,7.4h-6.5l8.2-43.7h42.2v7h-36.9
			l-5.4,28l0.2,0.2c2.1-2.5,4.7-4.4,8-5.8c3.2-1.4,6.5-2,9.9-2c4.3,0,8.3,0.7,11.7,2.2c3.5,1.4,6.5,3.5,8.9,6
			c2.4,2.6,4.3,5.6,5.7,9.2c1.3,3.6,2,7.5,2,11.7c0,4.1-0.8,7.9-2.3,11.4c-1.5,3.5-3.6,6.5-6.3,9c-2.7,2.5-5.8,4.5-9.3,5.9
			c-3.6,1.4-7.4,2.1-11.4,2.1c-3.9,0-7.6-0.6-10.9-1.7c-3.3-1.2-6.2-2.9-8.7-5.1c-2.5-2.2-4.4-4.9-5.8-8.1
			c-1.4-3.2-2.2-6.8-2.3-10.8h7.6C455.8,561.5,456.4,564.1,457.5,566.5z"/>
	</g>
</g>
</svg>
