<?xml version="1.0" encoding="UTF-8"?><svg id="Layer_1" xmlns="http://www.w3.org/2000/svg" viewBox="0 0 1121.5 1214.5"><defs><style>.cls-1{fill:none;stroke:#000;stroke-linecap:round;stroke-linejoin:round;stroke-width:.5px;}</style></defs><g><path d="m1121.25,821.25v158.99L.25,711.25v-160c373.63,89.99,747.37,180,1121,270Z"/><path d="m1033.23,976.25l87.02,238h-210s-88.85-225.94-89-238h211.98Z"/><path d="m665.25.25l271.6,698.13-192.58,3.36-188.34-466.57-123.68,347.08h-201L454.76.71l210.49-.46Z"/><path d="m356.64,819.05l-137.88,395.2c-67.66,0-150.85,0-218.51-.01l152.83-400.55,203.56,5.36Z"/></g><g><path class="cls-1" d="m936.85,698.38l-192.58,3.36-188.34-466.57-123.68,347.08h-201L454.76.71l210.49-.46,271.6,698.13Z"/><path class="cls-1" d="m.25,711.25v-160c373.63,89.99,747.37,180,1121,270v158.99L.25,711.25Z"/><path class="cls-1" d="m.25,1214.24c67.66.01,150.85.01,218.51.01l137.88-395.2-203.56-5.36L.25,1214.24Z"/><path class="cls-1" d="m821.25,976.25h211.98l87.02,238h-210s-88.85-225.94-89-238"/></g></svg>