<?xml version="1.0" encoding="UTF-8"?><svg id="Layer_1" xmlns="http://www.w3.org/2000/svg" viewBox="0 0 7693.17 1482.46"><defs><style>.cls-1{fill:none;stroke:#000;stroke-miterlimit:10;}.cls-2{fill:#1eaaaa;}</style></defs><path class="cls-2" d="m937.32,698.63l-192.58,3.36-188.34-466.58-123.68,347.08c-66.99,0-134.01,0-201,0L455.23.97l210.49-.47,271.6,698.13Zm1556.4-427.13c61.99.33,124.01.67,186,1v936c-57.99.33-116.01.67-174,1-.33-.33-.67-.67-1-1-.33-29-.67-58-1-87h-1c-2.02,0-30.66,32.19-34.64,35.98-12.48,11.89-24.57,20.96-39.64,29.3-32.6,18.05-65.62,30.4-102.56,34.5-72.52,8.03-143.99-10.83-200.74-57.73-19.51-16.13-36.67-35.14-50.39-56.42-26.7-41.42-51.07-92.22-61.64-140.36-8.02-36.51-10.68-76.37-11.49-113.74-1.88-87.05,7.63-148.85,60.89-217.72,48.81-63.12,82.7-84.35,121.5-101.33,34.42-15.06,72.68-19.28,110.25-18.93,52.6.5,107.07,10.46,149.66,41.32,6.5,4.71,41.08,40.46,45.36,37.38l4.44-322.23Zm3496,368v-367c.33-.33.67-.67,1-1,64.99.33,130.01.67,195,1v936c-65.33.33-130.67.67-196,1v-404h-358v403c-.33.33-.67.67-1,1-64.99-.33-130.01-.67-195-1V272.5c64.99-.33,130.01-.67,195-1,.33.33.67.67,1,1v367h358Zm-4392.75-121.96c36.12-5.88,74.72-5.26,108.37.24,52.68,8.6,107.4,35.09,138.96,79.59,9.43,13.3,16.73,28.04,22.56,43.26,3.94,10.27,7.22,20.8,9.81,31.49,18.04,74.46,11.13,158.45,10.72,234.72-.38,70.48-1.82,140.95-3.26,211.41-.12,5.84-1.57,90.24-1.42,90.24-61.66.33-123.34.67-185,1-.33-.33-.67-.67-1-1,.64-122.52,7.57-244.94,3.72-367.5-1.34-42.7-.2-86.43-20.72-125.35-33.73-63.97-109.91-68.09-167.04-31.51-71.3,45.64-67.14,120.34-69.38,195.12-1.95,65.35-.69,130.78,1.02,196.11,1.16,44.36,3.14,88.74,3.4,133.12h-191c1-227.31,2-454.69,3-682,57.33-.33,114.67-.67,172-1,.33,30.72-.5,61.74,1.14,92.4,31.15-36.16,69.25-69.4,114.16-87.04,15.5-6.09,32.44-10.47,49.95-13.32Zm1412.19,89.33c11.25-3.6,23.19-28.44,31.38-37.77,11.73-13.38,25-25.57,40.68-34.17,14.94-8.19,48.09-16.79,48.09-16.79,0,0,42.24-8.74,63.49-6.39,27.35,3.02,54.35,14.24,77.58,28.69,3.28,2.04,6.59,4.26,8.76,7.46.01.02.03.04.04.07,3.84,5.73,3.25,13.38,1.26,20-6.57,21.89-23.78,64.09-23.78,64.09,0,0-10.76,28.56-19.37,48.55s-6.97,28.31-30.04,20.41-48.17-18.9-74.18-16.62c-15.17,1.33-30.49,3.59-44.44,9.69-55.93,24.48-61.2,116.56-64.83,168.42-5.38,76.87-1.09,154.04-1.09,230.99-.33,38.33-.67,76.67-1,115-61.66.33-123.34.67-185,1-.33-.33-.67-.67-1-1,.33-227.64.67-455.36,1-683,57.33.33,114.67.67,172,1l.44,80.38Zm915.77,377.3c.8,58.15-52.67,164.91-126.28,196.29-43.11,18.38-85.79,38.93-132.19,43.59-71.95,7.23-155.1,1.93-220.07-29.81-54.65-26.7-98.57-82.97-122.94-138.45-25.42-57.88-41.45-114.32-41.45-172.34,0-51.7,2.97-84.45,15.6-122.36,10.74-32.21,28.69-64.22,45.62-93.65,45.75-79.52,113.1-133.54,204.31-149.85,81.98-14.66,170.11-1.47,240.03,43.78,123.82,80.13,143.4,226.19,146.15,362.13-148.98.67-298.02,1.33-447,2v1c0,66.77,6.61,116.29,69.79,136.77,30,9.72,83.08,13.04,113.36,4.21,18.38-5.36,39.89-23.65,46.51-37.97,6.27-13.55,12.09-45.33,12.09-45.33h196.47Zm2416.79-266.68c60.7-299.55,486.76-267.12,569-81,16.14,36.54,11,91.41,11,140,0,132.03-16.17,378.1,41,424v6c-12.04,5.37-184.94,3.42-188-2-18.96-7.74-8.28-51.01-21.53-62.21-78.16,70.63-182.9,105.78-286.48,73.06-36.23-11.44-70.35-30.66-96.88-57.87-26.53-27.21-52.34-64.53-56.83-102.26-4.36-36.65-2.72-75.66,13.79-114.32,21.83-51.13,39.06-71.49,67.79-87.89,30.43-17.38,66.88-21.29,101.03-29.13,73.55-16.9,147.08-33.37,220.89-49.08,8.13-1.73,17.19-4.12,21.37-11.3,2.78-4.79,2.7-10.67,2.3-16.19-.78-10.71-2.48-21.36-5.08-31.78-2.9-11.66-7.12-23.39-15.29-32.19-12.66-13.63-32.31-17.82-50.73-20.4-33.44-4.69-69.24-6.26-101.4,5.78-36.08,13.51-43.28,42.61-57.94,74.79-55.99-8.67-112.01-17.33-168-26Zm-1949.8-193.76l-111.05,429.79-121.64-424.04-186.04-1.06,230.94,682.47,167.23.05,111.38-414.81,112.3,412.42,169.12.95,221.25-683.26-173.48-2.51-131.76,428.1-110.49-425.29-177.74-2.82Zm2612.32,3.3l195.48-1.55c52.99,155.32,106.01,310.68,159,466,51.33-155.32,102.67-310.68,154-466h179.75s-174.33,518.55-174.33,518.55c-30.51,96.61-59.41,194.44-105.87,284.91-23.03,44.85-51.52,88.86-93.59,116.64-40.95,27.04-90.75,35.8-139.07,36.3-11.78.12-116.79.83-117.88-9.4-5.34-49.68-11.98-99.41-15.68-149.24,20.36,2.1,40.71,4.19,61.07,6.29,18.8,1.93,38.11,3.83,56.34-1.15,20.45-5.58,37.85-19.5,51.13-36.02,10.06-12.51,17.97-26.51,25.27-40.76,3.38-6.6,20.13-32.99,17.87-39.13-49.99-135.65-100-271.34-150-406.99l-103.48-278.46ZM.73,711.5v-160c373.63,89.99,747.37,180.01,1121,270v159L.73,711.5Zm2318.86-45.26c-26.86,6.07-52.14,20.92-71.36,42.16-73.4,81.1-57.93,216.27-7.15,304.57,16.85,29.31,41.1,56.74,73.59,66.06,23.12,6.63,48.44,3.27,70.37-6.61,91.35-41.16,121.02-166.27,107.94-257.03-7.8-54.13-41.71-108.96-89.27-136.81-26.4-15.46-56.13-18.67-84.13-12.35Zm1269.55-3.56c-13.56,2.57-26.59,7.52-38.19,15.05-15.59,10.11-28.11,24.4-38.35,39.9-17.15,25.96-29.42,58.46-22.88,89.87,85.31-.66,171.41,1.96,256.59-2.13-.67-4.31-1.92-9.44-1.88-14.37.47-58.88-45.65-113.65-102.99-127.04-17.07-3.99-35.11-4.55-52.3-1.29Zm892.58,122.82h0Zm0,4h0ZM.73,1214.5c67.66,0,150.85,0,218.51,0l137.87-395.19-203.55-5.36L.73,1214.5Zm6727.24-318.56c-30.8,6.5-61.59,12.99-92.39,19.49-27.83,5.87-56.24,11.96-80.7,26.48s-44.72,39.24-46.21,67.65c-1.88,35.99,28.03,68.39,62.84,77.68,34.82,9.29,72.36-.65,103.9-18.1,18.57-10.27,52.36-26.93,56.38-34.02,0,0,60.32-66.06-3.83-139.18h0Zm-5694.26,80.56s-141.33,0-211.98,0h211.98s87.02,238,87.02,238h-210s-88.86-225.93-89-238m5905,37h0Zm673,337h0Z"/><path class="cls-1" d="m937.32,698.63l-192.58,3.36-188.34-466.58-123.68,347.08c-66.99,0-134.01,0-201,0L455.23.97l210.49-.47,271.6,698.13Zm1556.4-427.13c61.99.33,124.01.67,186,1v936c-57.99.33-116.01.67-174,1-.33-.33-.67-.67-1-1-.33-29-.67-58-1-87h-1c-2.02,0-30.66,32.19-34.64,35.98-12.48,11.89-24.57,20.96-39.64,29.3-32.6,18.05-65.62,30.4-102.56,34.5-72.52,8.03-143.99-10.83-200.74-57.73-19.51-16.13-36.67-35.14-50.39-56.42-26.7-41.42-51.07-92.22-61.64-140.36-8.02-36.51-10.68-76.37-11.49-113.74-1.88-87.05,7.63-148.85,60.89-217.72,48.81-63.12,82.7-84.35,121.5-101.33,34.42-15.06,72.68-19.28,110.25-18.93,52.6.5,107.07,10.46,149.66,41.32,6.5,4.71,41.08,40.46,45.36,37.38l4.44-322.23Zm3496,368v-367c.33-.33.67-.67,1-1,64.99.33,130.01.67,195,1v936c-65.33.33-130.67.67-196,1v-404h-358v403c-.33.33-.67.67-1,1-64.99-.33-130.01-.67-195-1V272.5c64.99-.33,130.01-.67,195-1,.33.33.67.67,1,1v367h358Zm-4392.75-121.96c36.12-5.88,74.72-5.26,108.37.24,52.68,8.6,107.4,35.09,138.96,79.59,9.43,13.3,16.73,28.04,22.56,43.26,3.94,10.27,7.22,20.8,9.81,31.49,18.04,74.46,11.13,158.45,10.72,234.72-.38,70.48-1.82,140.95-3.26,211.41-.12,5.84-1.57,90.24-1.42,90.24-61.66.33-123.34.67-185,1-.33-.33-.67-.67-1-1,.64-122.52,7.57-244.94,3.72-367.5-1.34-42.7-.2-86.43-20.72-125.35-33.73-63.97-109.91-68.09-167.04-31.51-71.3,45.64-67.14,120.34-69.38,195.12-1.95,65.35-.69,130.78,1.02,196.11,1.16,44.36,3.14,88.74,3.4,133.12h-191c1-227.31,2-454.69,3-682,57.33-.33,114.67-.67,172-1,.33,30.72-.5,61.74,1.14,92.4,31.15-36.16,69.25-69.4,114.16-87.04,15.5-6.09,32.44-10.47,49.95-13.32Zm1412.19,89.33c11.25-3.6,23.19-28.44,31.38-37.77,11.73-13.38,25-25.57,40.68-34.17,14.94-8.19,48.09-16.79,48.09-16.79,0,0,42.24-8.74,63.49-6.39,27.35,3.02,54.35,14.24,77.58,28.69,3.28,2.04,6.59,4.26,8.76,7.46.01.02.03.04.04.07,3.84,5.73,3.25,13.38,1.26,20-6.57,21.89-23.78,64.09-23.78,64.09,0,0-10.76,28.56-19.37,48.55s-6.97,28.31-30.04,20.41-48.17-18.9-74.18-16.62c-15.17,1.33-30.49,3.59-44.44,9.69-55.93,24.48-61.2,116.56-64.83,168.42-5.38,76.87-1.09,154.04-1.09,230.99-.33,38.33-.67,76.67-1,115-61.66.33-123.34.67-185,1-.33-.33-.67-.67-1-1,.33-227.64.67-455.36,1-683,57.33.33,114.67.67,172,1l.44,80.38Zm915.77,377.3c.8,58.15-52.67,164.91-126.28,196.29-43.11,18.38-85.79,38.93-132.19,43.59-71.95,7.23-155.1,1.93-220.07-29.81-54.65-26.7-98.57-82.97-122.94-138.45-25.42-57.88-41.45-114.32-41.45-172.34,0-51.7,2.97-84.45,15.6-122.36,10.74-32.21,28.69-64.22,45.62-93.65,45.75-79.52,113.1-133.54,204.31-149.85,81.98-14.66,170.11-1.47,240.03,43.78,123.82,80.13,143.4,226.19,146.15,362.13-148.98.67-298.02,1.33-447,2v1c0,66.77,6.61,116.29,69.79,136.77,30,9.72,83.08,13.04,113.36,4.21,18.38-5.36,39.89-23.65,46.51-37.97,6.27-13.55,12.09-45.33,12.09-45.33h196.47Zm2416.79-266.68c60.7-299.55,486.76-267.12,569-81,16.14,36.54,11,91.41,11,140,0,132.03-16.17,378.1,41,424v6c-12.04,5.37-184.94,3.42-188-2-18.96-7.74-8.28-51.01-21.53-62.21-78.16,70.63-182.9,105.78-286.48,73.06-36.23-11.44-70.35-30.66-96.88-57.87-26.53-27.21-52.34-64.53-56.83-102.26-4.36-36.65-2.72-75.66,13.79-114.32,21.83-51.13,39.06-71.49,67.79-87.89,30.43-17.38,66.88-21.29,101.03-29.13,73.55-16.9,147.08-33.37,220.89-49.08,8.13-1.73,17.19-4.12,21.37-11.3,2.78-4.79,2.7-10.67,2.3-16.19-.78-10.71-2.48-21.36-5.08-31.78-2.9-11.66-7.12-23.39-15.29-32.19-12.66-13.63-32.31-17.82-50.73-20.4-33.44-4.69-69.24-6.26-101.4,5.78-36.08,13.51-43.28,42.61-57.94,74.79-55.99-8.67-112.01-17.33-168-26Zm-1949.8-193.76l-111.05,429.79-121.64-424.04-186.04-1.06,230.94,682.47,167.23.05,111.38-414.81,112.3,412.42,169.12.95,221.25-683.26-173.48-2.51-131.76,428.1-110.49-425.29-177.74-2.82Zm2612.32,3.3l195.48-1.55c52.99,155.32,106.01,310.68,159,466,51.33-155.32,102.67-310.68,154-466h179.75s-174.33,518.55-174.33,518.55c-30.51,96.61-59.41,194.44-105.87,284.91-23.03,44.85-51.52,88.86-93.59,116.64-40.95,27.04-90.75,35.8-139.07,36.3-11.78.12-116.79.83-117.88-9.4-5.34-49.68-11.98-99.41-15.68-149.24,20.36,2.1,40.71,4.19,61.07,6.29,18.8,1.93,38.11,3.83,56.34-1.15,20.45-5.58,37.85-19.5,51.13-36.02,10.06-12.51,17.97-26.51,25.27-40.76,3.38-6.6,20.13-32.99,17.87-39.13-49.99-135.65-100-271.34-150-406.99l-103.48-278.46ZM.73,711.5v-160c373.63,89.99,747.37,180.01,1121,270v159L.73,711.5Zm2318.86-45.26c-26.86,6.07-52.14,20.92-71.36,42.16-73.4,81.1-57.93,216.27-7.15,304.57,16.85,29.31,41.1,56.74,73.59,66.06,23.12,6.63,48.44,3.27,70.37-6.61,91.35-41.16,121.02-166.27,107.94-257.03-7.8-54.13-41.71-108.96-89.27-136.81-26.4-15.46-56.13-18.67-84.13-12.35Zm1269.55-3.56c-13.56,2.57-26.59,7.52-38.19,15.05-15.59,10.11-28.11,24.4-38.35,39.9-17.15,25.96-29.42,58.46-22.88,89.87,85.31-.66,171.41,1.96,256.59-2.13-.67-4.31-1.92-9.44-1.88-14.37.47-58.88-45.65-113.65-102.99-127.04-17.07-3.99-35.11-4.55-52.3-1.29Zm892.58,122.82h0Zm0,4h0ZM.73,1214.5c67.66,0,150.85,0,218.51,0l137.87-395.19-203.55-5.36L.73,1214.5Zm6727.24-318.56c-30.8,6.5-61.59,12.99-92.39,19.49-27.83,5.87-56.24,11.96-80.7,26.48s-44.72,39.24-46.21,67.65c-1.88,35.99,28.03,68.39,62.84,77.68,34.82,9.29,72.36-.65,103.9-18.1,18.57-10.27,52.36-26.93,56.38-34.02,0,0,60.32-66.06-3.83-139.18h0Zm-5694.26,80.56s-141.33,0-211.98,0h211.98s87.02,238,87.02,238h-210s-88.86-225.93-89-238m5905,37h0Zm673,337h0Z"/></svg>