<?xml version="1.0" encoding="utf-8"?>
<!-- Generator: Adobe Illustrator 27.3.1, SVG Export Plug-In . SVG Version: 6.00 Build 0)  -->
<svg version="1.1" id="Layer_1" xmlns="http://www.w3.org/2000/svg" xmlns:xlink="http://www.w3.org/1999/xlink" x="0px" y="0px"
	 viewBox="0 0 7693.2 1482.5" style="enable-background:new 0 0 7693.2 1482.5;" xml:space="preserve">
<style type="text/css">
	.st0{fill:none;stroke:#000000;stroke-miterlimit:10;}
</style>
<path d="M937.3,698.6L744.7,702L556.4,235.4L432.7,582.5c-67,0-134,0-201,0L455.2,1l210.5-0.5L937.3,698.6L937.3,698.6z
	 M2493.7,271.5c62,0.3,124,0.7,186,1v936c-58,0.3-116,0.7-174,1c-0.3-0.3-0.7-0.7-1-1c-0.3-29-0.7-58-1-87h-1
	c-2,0-30.7,32.2-34.6,36c-12.5,11.9-24.6,21-39.6,29.3c-32.6,18.1-65.6,30.4-102.6,34.5c-72.5,8-144-10.8-200.7-57.7
	c-19.5-16.1-36.7-35.1-50.4-56.4c-26.7-41.4-51.1-92.2-61.6-140.4c-8-36.5-10.7-76.4-11.5-113.7c-1.9-87,7.6-148.8,60.9-217.7
	c48.8-63.1,82.7-84.3,121.5-101.3c34.4-15.1,72.7-19.3,110.2-18.9c52.6,0.5,107.1,10.5,149.7,41.3c6.5,4.7,41.1,40.5,45.4,37.4
	L2493.7,271.5L2493.7,271.5z M5989.7,639.5v-367c0.3-0.3,0.7-0.7,1-1c65,0.3,130,0.7,195,1v936c-65.3,0.3-130.7,0.7-196,1v-404h-358
	v403c-0.3,0.3-0.7,0.7-1,1c-65-0.3-130-0.7-195-1v-936c65-0.3,130-0.7,195-1c0.3,0.3,0.7,0.7,1,1v367H5989.7z M1597,517.5
	c36.1-5.9,74.7-5.3,108.4,0.2c52.7,8.6,107.4,35.1,139,79.6c9.4,13.3,16.7,28,22.6,43.3c3.9,10.3,7.2,20.8,9.8,31.5
	c18,74.5,11.1,158.5,10.7,234.7c-0.4,70.5-1.8,140.9-3.3,211.4c-0.1,5.8-1.6,90.2-1.4,90.2c-61.7,0.3-123.3,0.7-185,1
	c-0.3-0.3-0.7-0.7-1-1c0.6-122.5,7.6-244.9,3.7-367.5c-1.3-42.7-0.2-86.4-20.7-125.3c-33.7-64-109.9-68.1-167-31.5
	c-71.3,45.6-67.1,120.3-69.4,195.1c-1.9,65.3-0.7,130.8,1,196.1c1.2,44.4,3.1,88.7,3.4,133.1h-191c1-227.3,2-454.7,3-682
	c57.3-0.3,114.7-0.7,172-1c0.3,30.7-0.5,61.7,1.1,92.4c31.2-36.2,69.2-69.4,114.2-87C1562.5,524.8,1579.4,520.4,1597,517.5
	L1597,517.5z M3009.2,606.9c11.2-3.6,23.2-28.4,31.4-37.8c11.7-13.4,25-25.6,40.7-34.2c14.9-8.2,48.1-16.8,48.1-16.8
	s42.2-8.7,63.5-6.4c27.4,3,54.4,14.2,77.6,28.7c3.3,2,6.6,4.3,8.8,7.5c0,0,0,0,0,0.1c3.8,5.7,3.2,13.4,1.3,20
	c-6.6,21.9-23.8,64.1-23.8,64.1s-10.8,28.6-19.4,48.5s-7,28.3-30,20.4s-48.2-18.9-74.2-16.6c-15.2,1.3-30.5,3.6-44.4,9.7
	c-55.9,24.5-61.2,116.6-64.8,168.4c-5.4,76.9-1.1,154-1.1,231c-0.3,38.3-0.7,76.7-1,115c-61.7,0.3-123.3,0.7-185,1
	c-0.3-0.3-0.7-0.7-1-1c0.3-227.6,0.7-455.4,1-683c57.3,0.3,114.7,0.7,172,1L3009.2,606.9L3009.2,606.9z M3924.9,984.2
	c0.8,58.1-52.7,164.9-126.3,196.3c-43.1,18.4-85.8,38.9-132.2,43.6c-71.9,7.2-155.1,1.9-220.1-29.8c-54.6-26.7-98.6-83-122.9-138.4
	c-25.4-57.9-41.4-114.3-41.4-172.3c0-51.7,3-84.5,15.6-122.4c10.7-32.2,28.7-64.2,45.6-93.7c45.8-79.5,113.1-133.5,204.3-149.8
	c82-14.7,170.1-1.5,240,43.8c123.8,80.1,143.4,226.2,146.1,362.1c-149,0.7-298,1.3-447,2v1c0,66.8,6.6,116.3,69.8,136.8
	c30,9.7,83.1,13,113.4,4.2c18.4-5.4,39.9-23.7,46.5-38c6.3-13.5,12.1-45.3,12.1-45.3L3924.9,984.2L3924.9,984.2z M6341.7,717.5
	c60.7-299.5,486.8-267.1,569-81c16.1,36.5,11,91.4,11,140c0,132-16.2,378.1,41,424v6c-12,5.4-184.9,3.4-188-2
	c-19-7.7-8.3-51-21.5-62.2c-78.2,70.6-182.9,105.8-286.5,73.1c-36.2-11.4-70.4-30.7-96.9-57.9s-52.3-64.5-56.8-102.3
	c-4.4-36.7-2.7-75.7,13.8-114.3c21.8-51.1,39.1-71.5,67.8-87.9c30.4-17.4,66.9-21.3,101-29.1c73.5-16.9,147.1-33.4,220.9-49.1
	c8.1-1.7,17.2-4.1,21.4-11.3c2.8-4.8,2.7-10.7,2.3-16.2c-0.8-10.7-2.5-21.4-5.1-31.8c-2.9-11.7-7.1-23.4-15.3-32.2
	c-12.7-13.6-32.3-17.8-50.7-20.4c-33.4-4.7-69.2-6.3-101.4,5.8c-36.1,13.5-43.3,42.6-57.9,74.8
	C6453.7,734.8,6397.7,726.2,6341.7,717.5L6341.7,717.5z M4391.9,523.7l-111,429.8l-121.6-424l-186-1.1l230.9,682.5l167.2,0.1
	l111.4-414.8l112.3,412.4l169.1,0.9l221.2-683.3l-173.5-2.5l-131.8,428.1l-110.5-425.3L4391.9,523.7L4391.9,523.7z M7004.2,527
	l195.5-1.5c53,155.3,106,310.7,159,466c51.3-155.3,102.7-310.7,154-466h179.8L7518.1,1044c-30.5,96.6-59.4,194.4-105.9,284.9
	c-23,44.8-51.5,88.9-93.6,116.6c-41,27-90.8,35.8-139.1,36.3c-11.8,0.1-116.8,0.8-117.9-9.4c-5.3-49.7-12-99.4-15.7-149.2
	c20.4,2.1,40.7,4.2,61.1,6.3c18.8,1.9,38.1,3.8,56.3-1.2c20.5-5.6,37.9-19.5,51.1-36c10.1-12.5,18-26.5,25.3-40.8
	c3.4-6.6,20.1-33,17.9-39.1c-50-135.7-100-271.3-150-407L7004.2,527L7004.2,527z M0.7,711.5v-160c373.6,90,747.4,180,1121,270v159
	L0.7,711.5z M2319.6,666.2c-26.9,6.1-52.1,20.9-71.4,42.2c-73.4,81.1-57.9,216.3-7.1,304.6c16.9,29.3,41.1,56.7,73.6,66.1
	c23.1,6.6,48.4,3.3,70.4-6.6c91.4-41.2,121-166.3,107.9-257c-7.8-54.1-41.7-109-89.3-136.8C2377.3,663.1,2347.6,659.9,2319.6,666.2
	L2319.6,666.2z M3589.1,662.7c-13.6,2.6-26.6,7.5-38.2,15c-15.6,10.1-28.1,24.4-38.4,39.9c-17.1,26-29.4,58.5-22.9,89.9
	c85.3-0.7,171.4,2,256.6-2.1c-0.7-4.3-1.9-9.4-1.9-14.4c0.5-58.9-45.6-113.7-103-127C3624.4,660,3606.3,659.4,3589.1,662.7
	L3589.1,662.7z M4481.7,785.5L4481.7,785.5z M4481.7,789.5L4481.7,789.5z M0.7,1214.5c67.7,0,150.9,0,218.5,0l137.9-395.2L153.6,814
	L0.7,1214.5z M6728,895.9c-30.8,6.5-61.6,13-92.4,19.5c-27.8,5.9-56.2,12-80.7,26.5s-44.7,39.2-46.2,67.7c-1.9,36,28,68.4,62.8,77.7
	c34.8,9.3,72.4-0.7,103.9-18.1c18.6-10.3,52.4-26.9,56.4-34C6731.8,1035.1,6792.1,969.1,6728,895.9L6728,895.9L6728,895.9z
	 M1033.7,976.5c0,0-141.3,0-212,0H1033.7l87,238h-210c0,0-88.9-225.9-89-238 M6726.7,1013.5L6726.7,1013.5z M7399.7,1350.5
	L7399.7,1350.5z"/>
<path class="st0" d="M937.3,698.6L744.7,702L556.4,235.4L432.7,582.5c-67,0-134,0-201,0L455.2,1l210.5-0.5L937.3,698.6L937.3,698.6z
	 M2493.7,271.5c62,0.3,124,0.7,186,1v936c-58,0.3-116,0.7-174,1c-0.3-0.3-0.7-0.7-1-1c-0.3-29-0.7-58-1-87h-1
	c-2,0-30.7,32.2-34.6,36c-12.5,11.9-24.6,21-39.6,29.3c-32.6,18.1-65.6,30.4-102.6,34.5c-72.5,8-144-10.8-200.7-57.7
	c-19.5-16.1-36.7-35.1-50.4-56.4c-26.7-41.4-51.1-92.2-61.6-140.4c-8-36.5-10.7-76.4-11.5-113.7c-1.9-87,7.6-148.8,60.9-217.7
	c48.8-63.1,82.7-84.3,121.5-101.3c34.4-15.1,72.7-19.3,110.2-18.9c52.6,0.5,107.1,10.5,149.7,41.3c6.5,4.7,41.1,40.5,45.4,37.4
	L2493.7,271.5L2493.7,271.5z M5989.7,639.5v-367c0.3-0.3,0.7-0.7,1-1c65,0.3,130,0.7,195,1v936c-65.3,0.3-130.7,0.7-196,1v-404h-358
	v403c-0.3,0.3-0.7,0.7-1,1c-65-0.3-130-0.7-195-1v-936c65-0.3,130-0.7,195-1c0.3,0.3,0.7,0.7,1,1v367H5989.7z M1597,517.5
	c36.1-5.9,74.7-5.3,108.4,0.2c52.7,8.6,107.4,35.1,139,79.6c9.4,13.3,16.7,28,22.6,43.3c3.9,10.3,7.2,20.8,9.8,31.5
	c18,74.5,11.1,158.5,10.7,234.7c-0.4,70.5-1.8,140.9-3.3,211.4c-0.1,5.8-1.6,90.2-1.4,90.2c-61.7,0.3-123.3,0.7-185,1
	c-0.3-0.3-0.7-0.7-1-1c0.6-122.5,7.6-244.9,3.7-367.5c-1.3-42.7-0.2-86.4-20.7-125.3c-33.7-64-109.9-68.1-167-31.5
	c-71.3,45.6-67.1,120.3-69.4,195.1c-1.9,65.3-0.7,130.8,1,196.1c1.2,44.4,3.1,88.7,3.4,133.1h-191c1-227.3,2-454.7,3-682
	c57.3-0.3,114.7-0.7,172-1c0.3,30.7-0.5,61.7,1.1,92.4c31.2-36.2,69.2-69.4,114.2-87C1562.5,524.8,1579.4,520.4,1597,517.5
	L1597,517.5z M3009.2,606.9c11.2-3.6,23.2-28.4,31.4-37.8c11.7-13.4,25-25.6,40.7-34.2c14.9-8.2,48.1-16.8,48.1-16.8
	s42.2-8.7,63.5-6.4c27.4,3,54.4,14.2,77.6,28.7c3.3,2,6.6,4.3,8.8,7.5c0,0,0,0,0,0.1c3.8,5.7,3.2,13.4,1.3,20
	c-6.6,21.9-23.8,64.1-23.8,64.1s-10.8,28.6-19.4,48.5s-7,28.3-30,20.4s-48.2-18.9-74.2-16.6c-15.2,1.3-30.5,3.6-44.4,9.7
	c-55.9,24.5-61.2,116.6-64.8,168.4c-5.4,76.9-1.1,154-1.1,231c-0.3,38.3-0.7,76.7-1,115c-61.7,0.3-123.3,0.7-185,1
	c-0.3-0.3-0.7-0.7-1-1c0.3-227.6,0.7-455.4,1-683c57.3,0.3,114.7,0.7,172,1L3009.2,606.9L3009.2,606.9z M3924.9,984.2
	c0.8,58.1-52.7,164.9-126.3,196.3c-43.1,18.4-85.8,38.9-132.2,43.6c-71.9,7.2-155.1,1.9-220.1-29.8c-54.6-26.7-98.6-83-122.9-138.4
	c-25.4-57.9-41.4-114.3-41.4-172.3c0-51.7,3-84.5,15.6-122.4c10.7-32.2,28.7-64.2,45.6-93.7c45.8-79.5,113.1-133.5,204.3-149.8
	c82-14.7,170.1-1.5,240,43.8c123.8,80.1,143.4,226.2,146.1,362.1c-149,0.7-298,1.3-447,2v1c0,66.8,6.6,116.3,69.8,136.8
	c30,9.7,83.1,13,113.4,4.2c18.4-5.4,39.9-23.7,46.5-38c6.3-13.5,12.1-45.3,12.1-45.3L3924.9,984.2L3924.9,984.2z M6341.7,717.5
	c60.7-299.5,486.8-267.1,569-81c16.1,36.5,11,91.4,11,140c0,132-16.2,378.1,41,424v6c-12,5.4-184.9,3.4-188-2
	c-19-7.7-8.3-51-21.5-62.2c-78.2,70.6-182.9,105.8-286.5,73.1c-36.2-11.4-70.4-30.7-96.9-57.9s-52.3-64.5-56.8-102.3
	c-4.4-36.7-2.7-75.7,13.8-114.3c21.8-51.1,39.1-71.5,67.8-87.9c30.4-17.4,66.9-21.3,101-29.1c73.5-16.9,147.1-33.4,220.9-49.1
	c8.1-1.7,17.2-4.1,21.4-11.3c2.8-4.8,2.7-10.7,2.3-16.2c-0.8-10.7-2.5-21.4-5.1-31.8c-2.9-11.7-7.1-23.4-15.3-32.2
	c-12.7-13.6-32.3-17.8-50.7-20.4c-33.4-4.7-69.2-6.3-101.4,5.8c-36.1,13.5-43.3,42.6-57.9,74.8
	C6453.7,734.8,6397.7,726.2,6341.7,717.5L6341.7,717.5z M4391.9,523.7l-111,429.8l-121.6-424l-186-1.1l230.9,682.5l167.2,0.1
	l111.4-414.8l112.3,412.4l169.1,0.9l221.2-683.3l-173.5-2.5l-131.8,428.1l-110.5-425.3L4391.9,523.7L4391.9,523.7z M7004.2,527
	l195.5-1.5c53,155.3,106,310.7,159,466c51.3-155.3,102.7-310.7,154-466h179.8L7518.1,1044c-30.5,96.6-59.4,194.4-105.9,284.9
	c-23,44.8-51.5,88.9-93.6,116.6c-41,27-90.8,35.8-139.1,36.3c-11.8,0.1-116.8,0.8-117.9-9.4c-5.3-49.7-12-99.4-15.7-149.2
	c20.4,2.1,40.7,4.2,61.1,6.3c18.8,1.9,38.1,3.8,56.3-1.2c20.5-5.6,37.9-19.5,51.1-36c10.1-12.5,18-26.5,25.3-40.8
	c3.4-6.6,20.1-33,17.9-39.1c-50-135.7-100-271.3-150-407L7004.2,527L7004.2,527z M0.7,711.5v-160c373.6,90,747.4,180,1121,270v159
	L0.7,711.5z M2319.6,666.2c-26.9,6.1-52.1,20.9-71.4,42.2c-73.4,81.1-57.9,216.3-7.1,304.6c16.9,29.3,41.1,56.7,73.6,66.1
	c23.1,6.6,48.4,3.3,70.4-6.6c91.4-41.2,121-166.3,107.9-257c-7.8-54.1-41.7-109-89.3-136.8C2377.3,663.1,2347.6,659.9,2319.6,666.2
	L2319.6,666.2z M3589.1,662.7c-13.6,2.6-26.6,7.5-38.2,15c-15.6,10.1-28.1,24.4-38.4,39.9c-17.1,26-29.4,58.5-22.9,89.9
	c85.3-0.7,171.4,2,256.6-2.1c-0.7-4.3-1.9-9.4-1.9-14.4c0.5-58.9-45.6-113.7-103-127C3624.4,660,3606.3,659.4,3589.1,662.7
	L3589.1,662.7z M4481.7,785.5L4481.7,785.5z M4481.7,789.5L4481.7,789.5z M0.7,1214.5c67.7,0,150.9,0,218.5,0l137.9-395.2L153.6,814
	L0.7,1214.5z M6728,895.9c-30.8,6.5-61.6,13-92.4,19.5c-27.8,5.9-56.2,12-80.7,26.5s-44.7,39.2-46.2,67.7c-1.9,36,28,68.4,62.8,77.7
	c34.8,9.3,72.4-0.7,103.9-18.1c18.6-10.3,52.4-26.9,56.4-34C6731.8,1035.1,6792.1,969.1,6728,895.9L6728,895.9L6728,895.9z
	 M1033.7,976.5c0,0-141.3,0-212,0H1033.7l87,238h-210c0,0-88.9-225.9-89-238 M6726.7,1013.5L6726.7,1013.5z M7399.7,1350.5
	L7399.7,1350.5z"/>
</svg>
